<?xml version="1.0" standalone="no"?>
<!DOCTYPE svg PUBLIC "-//W3C//DTD SVG 20010904//EN"
 "http://www.w3.org/TR/2001/REC-SVG-20010904/DTD/svg10.dtd">
<svg version="1.0" xmlns="http://www.w3.org/2000/svg"
 width="540.000000pt" height="540.000000pt" viewBox="0 0 540.000000 540.000000"
 preserveAspectRatio="xMidYMid meet">

<g transform="translate(0.000000,540.000000) scale(0.100000,-0.100000)"
fill="#000000" stroke="none">
<path d="M1871 4184 c-38 -19 -62 -40 -82 -72 -28 -45 -56 -143 -44 -161 3 -6
5 -454 5 -997 l0 -987 -30 -33 c-41 -47 -62 -90 -76 -154 -8 -39 -15 -54 -25
-51 -103 31 -205 -17 -240 -113 -11 -30 -17 -34 -60 -39 -135 -16 -232 -133
-232 -282 -1 -92 29 -160 94 -219 71 -64 92 -67 419 -64 l285 3 0 25 0 25
-295 5 c-329 6 -345 9 -397 76 -71 94 -70 213 4 295 49 55 81 69 152 69 58 0
61 1 67 28 16 76 47 116 102 131 39 12 92 -2 117 -29 21 -23 50 -26 58 -6 3 7
3 31 0 53 -12 93 51 209 138 254 47 23 125 25 177 3 71 -29 126 -102 140 -186
11 -64 33 -70 80 -21 47 49 97 67 163 61 92 -9 168 -92 184 -200 l7 -48 -43
-19 c-50 -21 -73 -43 -89 -85 -17 -46 4 -53 27 -9 24 48 80 78 127 69 18 -4
51 -22 73 -41 96 -82 102 -234 14 -328 -48 -52 -75 -60 -226 -66 l-140 -6 0
-25 0 -25 135 -3 c154 -3 197 8 261 65 35 32 42 34 96 31 l58 -3 3 -133 c2
-105 6 -134 17 -138 8 -4 37 14 70 41 l55 47 51 -46 c28 -25 55 -46 59 -46 22
0 30 37 32 151 l3 124 185 5 c176 5 187 6 237 32 l52 27 80 -108 c95 -126 108
-136 387 -287 212 -115 230 -119 259 -64 14 27 13 38 -25 177 -22 81 -40 155
-40 163 0 9 66 52 163 106 148 83 162 93 164 120 2 20 -79 215 -261 624 l-263
595 281 5 c281 5 281 5 331 32 213 113 260 412 94 593 -21 23 -59 53 -83 65
-43 24 -44 24 -49 87 -10 128 -113 269 -223 307 -98 33 -206 15 -290 -49 l-32
-25 -17 50 c-37 113 -145 216 -250 241 -73 17 -77 20 -97 80 -25 70 -19 147
18 229 47 105 142 95 -928 98 l-934 2 -53 -26z m1835 -76 c-3 -13 -6 -26 -6
-30 0 -5 -369 -8 -820 -8 -540 0 -820 -3 -820 -10 0 -7 279 -10 816 -10 l816
0 -6 -22 c-3 -13 -6 -29 -6 -35 0 -10 -182 -13 -875 -13 -577 0 -875 -3 -875
-10 0 -7 298 -10 875 -10 493 0 875 -4 875 -9 0 -5 3 -23 6 -40 l7 -31 -819
-2 -819 -3 815 -2 c752 -3 816 -4 828 -20 33 -45 65 -43 -894 -41 l-906 3 -33
37 c-77 83 -63 203 29 259 30 18 63 19 925 19 l893 0 -6 -22z m219 -402 c77
-45 141 -145 152 -237 9 -77 25 -81 86 -22 72 70 108 87 187 87 79 0 128 -21
187 -82 51 -52 83 -132 83 -206 l0 -54 -40 -7 c-57 -10 -118 -58 -142 -112
-14 -31 -17 -48 -10 -55 7 -7 18 4 33 36 79 169 302 119 374 -83 49 -141 -15
-315 -138 -376 l-53 -25 -289 2 -288 3 -124 279 -123 279 0 308 0 308 31 -9
c17 -5 50 -20 74 -34z m-195 -168 c-1 -168 -2 -181 -16 -155 -14 25 -24 31
-50 28 -6 -1 -83 -42 -170 -91 -87 -50 -161 -90 -165 -90 -3 0 -10 48 -15 108
l-9 107 -452 3 c-428 2 -453 1 -453 -16 0 -21 1 -23 268 -401 195 -276 214
-306 202 -324 -7 -12 -114 -158 -238 -326 -124 -168 -227 -316 -230 -328 l-4
-23 291 0 291 0 48 -61 c26 -34 160 -210 298 -393 l251 -331 -36 -20 c-34 -19
-58 -20 -382 -23 l-346 -3 0 83 c1 66 -3 93 -21 133 -25 54 -81 118 -123 140
-21 11 -28 25 -33 60 -15 94 -69 178 -143 222 -41 24 -59 28 -123 28 -64 0
-82 -4 -121 -27 l-46 -27 -23 50 c-13 27 -45 70 -72 95 l-48 45 0 859 0 860
835 0 835 0 0 -182z m-578 -178 c50 -14 91 -51 116 -102 24 -50 20 -57 -50
-95 -29 -16 -51 -35 -54 -49 -4 -16 49 -145 175 -430 99 -224 179 -409 177
-411 -1 -2 -72 89 -157 202 -171 227 -187 242 -270 232 -65 -8 -122 -39 -193
-106 l-59 -56 54 75 c142 193 133 177 113 208 -9 15 -90 131 -179 257 -89 127
-170 242 -180 258 l-17 27 243 0 c137 0 260 -5 281 -10z m548 -152 c41 -94 41
-92 -17 -122 -20 -10 -33 -24 -33 -36 0 -30 15 -32 63 -5 25 14 48 22 50 18
15 -24 97 -218 97 -228 0 -7 -13 -18 -29 -25 -37 -15 -65 -45 -56 -59 10 -16
30 -13 70 10 20 12 40 18 44 13 8 -10 101 -218 101 -227 0 -3 -20 -17 -45 -31
-45 -27 -57 -52 -30 -62 8 -3 30 3 48 15 19 12 39 21 44 21 8 0 113 -217 113
-233 0 -1 -20 -13 -45 -27 -43 -24 -58 -51 -35 -65 6 -4 31 5 56 20 l45 26 23
-53 c13 -29 37 -83 54 -120 l30 -67 -49 -31 c-51 -31 -57 -41 -36 -58 9 -8 24
-4 57 14 24 14 47 21 50 17 17 -18 100 -224 95 -233 -4 -6 -24 -19 -46 -30
-39 -21 -51 -46 -25 -56 8 -3 33 4 56 16 35 18 44 19 51 8 17 -26 142 -318
138 -321 -20 -15 -262 -148 -264 -145 -2 2 -10 27 -19 56 -15 51 -14 54 2 47
43 -19 61 -17 86 8 35 35 35 89 1 122 -40 41 -92 30 -115 -26 -12 -28 -14 -29
-23 -12 -6 10 -111 151 -233 313 l-222 295 -246 557 c-135 307 -246 561 -246
565 1 12 373 222 389 220 7 -1 31 -41 51 -89z m-558 -577 c13 -5 37 -29 55
-53 29 -41 31 -46 16 -61 -9 -9 -13 -23 -9 -33 6 -16 8 -16 26 1 16 15 22 16
35 5 9 -7 15 -18 13 -24 -2 -6 -72 -78 -155 -161 -145 -141 -154 -148 -167
-130 -14 19 -7 28 110 145 68 69 124 131 124 138 0 29 -32 5 -147 -110 -67
-67 -124 -120 -126 -118 -2 3 -19 25 -38 50 -27 35 -34 53 -33 85 2 100 114
232 224 266 35 10 45 10 72 0z m-329 -143 c-22 -43 -27 -67 -28 -123 0 -66 2
-74 38 -123 l39 -52 -142 0 c-112 0 -140 3 -133 13 5 6 63 85 128 175 65 89
120 162 122 162 2 0 -9 -24 -24 -52z m512 -98 c25 -10 43 -35 32 -46 -7 -8
-107 25 -107 35 0 22 32 27 75 11z m-36 -51 c44 -13 50 -23 24 -37 -14 -8 -94
9 -112 24 -8 7 23 35 35 30 6 -2 30 -10 53 -17z m-55 -45 c44 -15 46 -17 31
-34 -15 -17 -20 -17 -63 -3 -58 20 -58 19 -42 38 15 19 16 19 74 -1z m549
-489 c207 -275 377 -504 377 -510 0 -6 -68 -78 -150 -160 -130 -128 -152 -147
-164 -134 -8 8 -183 239 -390 513 -339 450 -375 501 -362 515 13 12 18 13 28
3 7 -7 175 -227 373 -489 199 -262 366 -478 373 -481 7 -2 12 3 12 11 0 11
-598 815 -731 983 -6 7 -2 18 10 28 18 17 31 1 386 -468 201 -267 371 -489
377 -492 5 -3 14 -2 19 3 5 5 -151 219 -366 503 l-374 495 37 38 36 37 36 -42
c47 -54 64 -35 21 24 -29 39 -30 43 -14 60 9 10 19 16 22 12 3 -3 148 -193
321 -422 173 -229 321 -418 328 -420 6 -2 12 3 12 10 0 8 -144 205 -320 438
-256 338 -318 426 -309 437 7 7 17 12 23 10 6 -2 181 -228 389 -502z m-599
439 c39 -14 45 -18 34 -31 -12 -15 -39 -13 -92 6 -23 9 -26 14 -16 26 15 19
16 19 74 -1z m-30 -54 c27 -10 28 -12 14 -27 -15 -14 -21 -14 -67 2 -44 14
-50 19 -39 32 12 15 39 14 92 -7z m-24 -61 c0 -3 -6 -11 -13 -17 -10 -8 -27
-7 -65 5 -48 15 -51 18 -36 34 14 16 19 16 65 1 27 -9 49 -19 49 -23z m-67
-36 c21 -6 22 -17 3 -32 -11 -9 -19 -5 -37 20 -21 30 -21 32 -3 25 10 -5 27
-11 37 -13z m1257 -748 c15 -18 7 -43 -16 -52 -24 -9 -46 24 -33 48 12 23 32
24 49 4z m-92 -260 l42 -150 -58 -58 -58 -58 -104 57 c-58 31 -118 66 -134 77
l-30 21 144 138 c80 75 147 134 151 130 3 -4 25 -74 47 -157z m-1128 -67 l0
-82 -33 32 c-18 18 -39 32 -47 32 -8 0 -29 -14 -47 -32 l-33 -32 0 82 0 82 80
0 80 0 0 -82z"/>
<path d="M3360 2101 c0 -12 657 -884 670 -889 38 -14 -27 83 -311 458 -294
389 -359 467 -359 431z"/>
<path d="M4010 1383 c1 -34 60 -85 60 -52 0 15 -39 69 -51 69 -5 0 -9 -8 -9
-17z"/>
<path d="M1935 1060 c-3 -5 -3 -19 0 -31 5 -16 14 -19 38 -17 27 2 32 7 32 28
0 21 -5 26 -32 28 -17 2 -34 -2 -38 -8z"/>
<path d="M2056 1054 c-10 -27 13 -44 59 -44 46 0 69 17 59 44 -9 23 -109 23
-118 0z"/>
</g>
</svg>
